<svg xmlns="http://www.w3.org/2000/svg" xmlns:xlink="http://www.w3.org/1999/xlink" viewBox="0 0 1077.22 594.13"><defs><style>.cls-1{fill:#fff;}.cls-2{fill:#ebf3f7;}.cls-3{opacity:0.44;}.cls-4{fill:#b8d6ff;}.cls-5{fill:url(#linear-gradient);}.cls-6{fill:url(#linear-gradient-2);}.cls-7{fill:#ff9f55;}.cls-8{fill:#eff7fe;}.cls-9{fill:url(#linear-gradient-3);}.cls-10{fill:#5284fc;}.cls-11{fill:url(#linear-gradient-4);}.cls-12{fill:url(#linear-gradient-5);}.cls-13{fill:url(#linear-gradient-6);}.cls-14{fill:#8dbde3;}.cls-15{fill:#706865;}.cls-16{fill:#c9c9c9;}.cls-17{fill:#fa5;}.cls-18{fill:#ccbdb7;}.cls-19{fill:#b59074;}.cls-20{fill:#d44040;}.cls-21{fill:#ead8cf;}.cls-22{fill:#da9b5b;}.cls-23{fill:#424773;}.cls-24{fill:#292c47;}.cls-25{fill:#eea886;}.cls-26{fill:#3a3f47;}.cls-27{fill:#e2d2ca;}.cls-28{fill:#323657;}.cls-29{fill:#918783;}.cls-30{fill:#5e5854;}.cls-31{fill:#bfb2ac;}.cls-32{fill:#254380;}.cls-33{fill:url(#linear-gradient-7);}.cls-34{fill:#f5f7ff;}.cls-35{fill:#ffc655;}.cls-36{fill:#dfe1e8;}.cls-37{fill:#36572b;}.cls-38{fill:#45613c;}.cls-39{fill:#925e2e;}.cls-40{fill:#48753a;}.cls-41{fill:#538742;}.cls-42{fill:#877670;}.cls-43{fill:#876455;}.cls-44{fill:#715346;}.cls-45{fill:#9e633a;}.cls-46{fill:#97a43c;}.cls-47{fill:#82522f;}.cls-48{fill:#c67b47;}.cls-49{fill:#1a2f59;}.cls-50{fill:url(#linear-gradient-8);}.cls-51{fill:url(#linear-gradient-9);}.cls-52{fill:#f08533;}.cls-53{fill:#fae6de;}.cls-54{fill:url(#linear-gradient-10);}.cls-55{fill:#495da1;}.cls-56{fill:#deccc5;}.cls-57{fill:url(#linear-gradient-11);}.cls-58{fill:url(#linear-gradient-12);}.cls-59{fill:url(#linear-gradient-13);}.cls-60{fill:url(#linear-gradient-14);}.cls-61{fill:url(#linear-gradient-15);}</style><linearGradient id="linear-gradient" x1="612.01" y1="60.59" x2="623.95" y2="97.38" gradientUnits="userSpaceOnUse"><stop offset="0" stop-color="#ff9f55"/><stop offset="1" stop-color="#ffd255"/></linearGradient><linearGradient id="linear-gradient-2" x1="184.21" y1="536.52" x2="184.21" y2="449.93" xlink:href="#linear-gradient"/><linearGradient id="linear-gradient-3" x1="181.16" y1="341.27" x2="181.16" y2="461.14" gradientUnits="userSpaceOnUse"><stop offset="0" stop-color="#40d5e6"/><stop offset="1" stop-color="#57f"/></linearGradient><linearGradient id="linear-gradient-4" x1="263.65" y1="347.03" x2="263.65" y2="257.41" gradientTransform="translate(527.3 622.93) rotate(-180)" xlink:href="#linear-gradient"/><linearGradient id="linear-gradient-5" x1="161.08" y1="106.08" x2="161.08" y2="206.75" xlink:href="#linear-gradient-3"/><linearGradient id="linear-gradient-6" x1="237.08" y1="56.43" x2="237.08" y2="136.96" xlink:href="#linear-gradient-3"/><linearGradient id="linear-gradient-7" x1="-4538.39" y1="191.55" x2="-4339.91" y2="191.55" gradientTransform="matrix(-1, 0, 0, 1, -3835.84, 0)" xlink:href="#linear-gradient"/><linearGradient id="linear-gradient-8" x1="-9314.44" y1="419.35" x2="-9449.62" y2="419.35" gradientTransform="matrix(1, 0, 0, -1, 10303.42, 838.7)" xlink:href="#linear-gradient"/><linearGradient id="linear-gradient-9" x1="-9250.93" y1="531.93" x2="-9384.81" y2="531.93" gradientTransform="matrix(1, 0, 0, -1, 10220.81, 1063.86)" xlink:href="#linear-gradient"/><linearGradient id="linear-gradient-10" x1="-9548.02" y1="481.01" x2="-9292.67" y2="481.01" gradientTransform="matrix(1, 0, 0, -1, 10386.28, 962.01)" gradientUnits="userSpaceOnUse"><stop offset="0" stop-color="#609ff0"/><stop offset="1" stop-color="#5a3f9e"/></linearGradient><linearGradient id="linear-gradient-11" x1="925.19" y1="383.09" x2="925.19" y2="355.64" xlink:href="#linear-gradient"/><linearGradient id="linear-gradient-12" x1="924.22" y1="321.2" x2="924.22" y2="359.2" xlink:href="#linear-gradient-3"/><linearGradient id="linear-gradient-13" x1="950.37" y1="323.03" x2="950.37" y2="294.62" gradientTransform="translate(1900.74 623.51) rotate(-180)" xlink:href="#linear-gradient"/><linearGradient id="linear-gradient-14" x1="917.86" y1="246.65" x2="917.86" y2="278.56" xlink:href="#linear-gradient-3"/><linearGradient id="linear-gradient-15" x1="941.95" y1="230.92" x2="941.95" y2="256.44" xlink:href="#linear-gradient-3"/></defs><g id="Layer_2" data-name="Layer 2"><g id="_Layer_" data-name="&lt;Layer&gt;"><g id="livre"><path class="cls-1" d="M874.32,526a3.51,3.51,0,1,1-3.51-3.51A3.51,3.51,0,0,1,874.32,526Z"/><path class="cls-1" d="M927.09,485.77a2.52,2.52,0,1,1-1.86-3A2.52,2.52,0,0,1,927.09,485.77Z"/><path class="cls-1" d="M846.61,587.05a5.36,5.36,0,1,1-4-6.46A5.36,5.36,0,0,1,846.61,587.05Z"/><circle class="cls-1" cx="740.47" cy="462.02" r="6.62"/><path class="cls-1" d="M1010.28,523.08a2.51,2.51,0,1,1-1.86-3A2.52,2.52,0,0,1,1010.28,523.08Z"/><path class="cls-1" d="M720.82,560.63a2.51,2.51,0,1,1-1.86-3A2.51,2.51,0,0,1,720.82,560.63Z"/><line class="cls-2" x1="690.63" y1="594.13" x2="688.13" y2="594.13"/><line class="cls-2" x1="387.67" y1="594.13" x2="385.17" y2="594.13"/><g class="cls-3"><rect class="cls-4" x="823.31" y="73.27" width="45.93" height="3.43"/><rect class="cls-4" x="823.31" y="78.2" width="45.93" height="9.29"/><polygon class="cls-4" points="830.96 1.27 830.96 32.33 754.82 32.33 754.82 37.78 830.96 37.78 830.96 42.61 754.82 42.61 754.82 65.56 830.96 65.56 832.67 65.56 834.39 65.56 834.39 1.27 830.96 1.27"/></g><path class="cls-5" d="M610.75,101.66,583.82,78.19a5.31,5.31,0,0,1,7-8l19.05,16.6L637,56.5a5.3,5.3,0,0,1,7.9,7.08Z"/><path class="cls-6" d="M60.58,462.94H348a0,0,0,0,1,0,0v80.74a0,0,0,0,1,0,0H60.58a40.2,40.2,0,0,1-40.2-40.2v-.34a40.2,40.2,0,0,1,40.2-40.2Z"/><path class="cls-7" d="M400.49,471.25v64.12h5.36v8.31H184.5a22.28,22.28,0,0,1-22.29-22.28V485.23a22.29,22.29,0,0,1,22.29-22.29H405.85v8.31Z"/><path class="cls-8" d="M210.61,471.25H400.49a0,0,0,0,1,0,0v64.12a0,0,0,0,1,0,0H210.61a32.06,32.06,0,0,1-32.06-32.06v0A32.06,32.06,0,0,1,210.61,471.25Z"/><path class="cls-9" d="M46.95,369H362.31a0,0,0,0,1,0,0v93.9a0,0,0,0,1,0,0H46.95A46.95,46.95,0,0,1,0,416v0A46.95,46.95,0,0,1,46.95,369Z"/><path class="cls-10" d="M421.61,378.71v74.57h4.61v9.66H244.4a28,28,0,0,1-28-28V397a28,28,0,0,1,28-28H426.22v9.67Z"/><path class="cls-8" d="M267.76,378.71H421.61a0,0,0,0,1,0,0v74.57a0,0,0,0,1,0,0H267.76A37.28,37.28,0,0,1,230.47,416v0A37.28,37.28,0,0,1,267.76,378.71Z"/><path class="cls-11" d="M176.11,253.91H405.85a0,0,0,0,1,0,0V369a0,0,0,0,1,0,0H176.11a54.66,54.66,0,0,1-54.66-54.66v-5.8A54.66,54.66,0,0,1,176.11,253.91Z" transform="translate(527.3 622.93) rotate(180)"/><path class="cls-7" d="M75.93,265.76v91.42H71.28V369H252.44a30.3,30.3,0,0,0,30.3-30.3V284.21a30.3,30.3,0,0,0-30.3-30.3H71.28v11.85Z"/><path class="cls-8" d="M121.65,265.76H266.26a0,0,0,0,1,0,0v91.42a0,0,0,0,1,0,0H121.65a45.71,45.71,0,0,1-45.71-45.71v0A45.71,45.71,0,0,1,121.65,265.76Z" transform="translate(342.19 622.93) rotate(-180)"/><path class="cls-12" d="M67.91,138.76H311.73a0,0,0,0,1,0,0V253.88a0,0,0,0,1,0,0H67.91a57.46,57.46,0,0,1-57.46-57.46v-.19a57.46,57.46,0,0,1,57.46-57.46Z"/><path class="cls-10" d="M360,150.62V242h4.92v11.85H172.71A31.86,31.86,0,0,1,140.86,222V170.62a31.85,31.85,0,0,1,31.85-31.85H364.87v11.85Z"/><path class="cls-8" d="M203.29,150.61H359.95a0,0,0,0,1,0,0V242a0,0,0,0,1,0,0H203.29a45.71,45.71,0,0,1-45.71-45.71v0A45.71,45.71,0,0,1,203.29,150.61Z"/><path class="cls-13" d="M122.1,51.62H387.72a0,0,0,0,1,0,0v87.12a0,0,0,0,1,0,0H122.1a35.67,35.67,0,0,1-35.67-35.67V87.28A35.67,35.67,0,0,1,122.1,51.62Z"/><path class="cls-10" d="M435.94,60.58v69.19h4.93v9H236.62A19.78,19.78,0,0,1,216.85,119V71.39a19.77,19.77,0,0,1,19.77-19.77H440.87v9Z"/><path class="cls-8" d="M266.46,60.58H435.94a0,0,0,0,1,0,0v69.18a0,0,0,0,1,0,0H266.46a34.59,34.59,0,0,1-34.59-34.59v0A34.59,34.59,0,0,1,266.46,60.58Z"/><path class="cls-14" d="M845.57,232.16,562,233.62a21.37,21.37,0,0,1-21.48-21.26l-1-186.65A21.37,21.37,0,0,1,560.82,4.23L844.39,2.77A21.37,21.37,0,0,1,865.87,24l1,186.65A21.37,21.37,0,0,1,845.57,232.16Z"/><rect class="cls-15" x="663.41" y="0.2" width="79.57" height="17.97" transform="translate(-0.04 3.62) rotate(-0.3)"/><path class="cls-1" d="M623.7,48.78s.09,52.14-5.57,73l-12.26,7.76-43.37.22c8.13-22,8-80.75,8-80.75Z"/><polygon class="cls-16" points="605.87 129.58 605.83 121.7 618.13 121.64 605.87 129.58"/><path class="cls-1" d="M676.14,35.94s.06,36.07-3.86,50.53l-8.48,5.37-30,.15c5.62-15.2,5.54-55.86,5.54-55.86Z"/><polygon class="cls-16" points="663.8 91.84 663.77 86.39 672.28 86.34 663.8 91.84"/><path class="cls-1" d="M749.72,45.17s.08,49.41-5.28,69.21l-11.62,7.35-41.1.22c7.7-20.82,7.6-76.53,7.6-76.53Z"/><polygon class="cls-16" points="732.82 121.73 732.78 114.27 744.44 114.21 732.82 121.73"/><path class="cls-1" d="M802.14,108.07s.06,33.38-3.57,46.75l-7.85,5-27.75.14c5.2-14.06,5.13-51.68,5.13-51.68Z"/><polygon class="cls-16" points="790.73 159.79 790.7 154.75 798.57 154.71 790.73 159.79"/><path class="cls-1" d="M802.14,39.63s.06,33.37-3.57,46.75l-7.85,5L763,91.49c5.2-14.06,5.13-51.69,5.13-51.69Z"/><polygon class="cls-16" points="790.73 91.34 790.7 86.3 798.57 86.26 790.73 91.34"/><path class="cls-1" d="M845.25,72.6s0,25.62-2.74,35.89l-6,3.81-21.31.11c4-10.79,3.93-39.68,3.93-39.68Z"/><polygon class="cls-16" points="836.49 112.3 836.47 108.43 842.51 108.4 836.49 112.3"/><path class="cls-1" d="M674.25,114.42s0,26.6-3.27,37.26l-7.12,4-25.18.12c4.73-11.2,4.69-41.19,4.69-41.19Z"/><polygon class="cls-16" points="663.86 155.65 663.84 151.63 670.98 151.59 663.86 155.65"/><rect class="cls-1" x="564.54" y="176.23" width="75.86" height="3.94"/><rect class="cls-1" x="564.54" y="203.59" width="87.48" height="3.94"/><rect class="cls-1" x="564.54" y="189.91" width="53.88" height="3.94"/><rect class="cls-17" x="499.31" y="292.56" width="87.33" height="5.18"/><rect class="cls-15" x="511.01" y="311.24" width="7.65" height="235.75" transform="translate(1029.67 858.22) rotate(180)"/><rect class="cls-18" x="572.96" y="291.09" width="60.7" height="7.4"/><rect class="cls-17" x="591.82" y="227.93" width="22.99" height="69.81"/><rect class="cls-19" x="467.98" y="297.83" width="336.31" height="13.4"/><path class="cls-20" d="M403.43,216.7s-3.67,51.58,6.4,57.76c6.32,3.86,31.49,16.91,30.75,19.35s-14.22,21.77-14.22,21.77S378,283.74,376.45,273.7c-1.53-9.8,2.38-75.53,9-78.55,5-2.27,7.61-.4,13.88,4.26C408.16,206,403.43,216.7,403.43,216.7Z"/><path class="cls-21" d="M491.56,231.43l4.26-1.58s-5.31-12.47-7.63-12.17a58.2,58.2,0,0,0-6,1.23Z"/><path class="cls-22" d="M492.54,233.58c-.55-.4-9.06-16.74-9.06-16.74l-18.2,2.47,9.83,19.35Z"/><path class="cls-23" d="M462.93,514.8s-1.51,10.43-1.69,12-16.73-.92-16.73-.92l-1.34-12.43S460.86,513.32,462.93,514.8Z"/><path class="cls-24" d="M461.41,525.47s5.24,6.29,10.31,9,13,3.83,16,6.67c2.16,2.05,7.88,10.87-13.17,10.69s-31.2,1.24-33.45-2.14,3.26-25,3.26-25S449.37,526.56,461.41,525.47Z"/><path class="cls-23" d="M568.89,514.89s-1.5,10.44-1.69,12-16.73-.92-16.73-.92l-1.33-12.43S566.83,513.42,568.89,514.89Z"/><path class="cls-24" d="M567.38,525.57s5.24,6.29,10.31,9,23.72,5,26.71,7.83c2.17,2.05,5.77,10.3-23.85,9.53-21-.55-31.2,1.24-33.46-2.14s3.27-25,3.27-25S555.05,526.78,567.38,525.57Z"/><path class="cls-24" d="M409.58,334.5s60.13,10.18,73.71,12.31,87.22,20.46,96.43,26c7.33,4.45-3.84,111.19-6.45,151.92h-29l-2.1-122.17c-34.81.87-59.64-8.14-85-4.29s-46.48,9.32-62.58-12.28C394.59,386,394,339.22,409.58,334.5Z"/><path class="cls-24" d="M468.85,524.86l-28.27-1.74L437.83,402.6c-15,.38-20.12-.57-32.25-2l-22.82-53.05c20,4,84.08,20.16,92.63,25.34C482.72,377.3,471.46,484.14,468.85,524.86Z"/><path class="cls-25" d="M437.26,109.11s22-6.09,30.45,11,4.6,49.55-6.51,52.6-27.08-.46-31.69-11.11-8.29-25.78-7.19-35.58S431.41,111.45,437.26,109.11Z"/><path class="cls-25" d="M455.44,169.32s-.24,13,1.19,15.79-30.69,2.08-30.69,2.08,5.06-15.63,2.19-28.95S455.44,169.32,455.44,169.32Z"/><path class="cls-26" d="M426.4,153.32s1.72,3.49,10,2.93,19.28-10.6,22.81-11.5,3.74-2.9,3.74-2.9l1.87,3.32,3.62.55s-.73-8.3,2.89-13.6c1.59-2.32-2.41-32.05-29.53-25.18,0,0-20.69,3.79-21,15.35S422.38,147.2,426.4,153.32Z"/><path class="cls-27" d="M458.32,184.77s-.09-5.3-2.49-5.81-25.25-3.65-28.2-2.49l-1.27,7S432,187,458.32,184.77Z"/><path class="cls-25" d="M464.94,139.48c-.62-4.35-5.56-9.34-8.39-2.57s1.91,16.62,5.09,16.09S465.77,145.37,464.94,139.48Z"/><path class="cls-28" d="M554,247.4h0C554.17,247.47,554.19,247.48,554,247.4Z"/><path class="cls-26" d="M430.83,112.21S404,111,426.14,152.9Z"/><polygon class="cls-29" points="370.95 539.16 372.95 544.78 457.43 518.61 453.38 507.22 370.95 539.16"/><rect class="cls-29" x="450.72" y="422.76" width="9.6" height="91.84"/><rect class="cls-30" x="427.21" y="417.88" width="56.63" height="5.41"/><polygon class="cls-29" points="540.84 539.16 538.84 544.78 454.36 518.61 458.07 506.51 540.84 539.16"/><polygon class="cls-29" points="481.32 544.18 481.32 550.73 454.36 518.61 458.07 506.51 481.32 544.18"/><path class="cls-31" d="M548.73,547a7.9,7.9,0,1,1-7.89-7.89A7.9,7.9,0,0,1,548.73,547Z"/><path class="cls-31" d="M482,547a7.9,7.9,0,1,1-7.9-7.89A7.9,7.9,0,0,1,482,547Z"/><path class="cls-31" d="M378.84,547a7.89,7.89,0,1,1-7.89-7.89A7.9,7.9,0,0,1,378.84,547Z"/><rect class="cls-32" x="388.81" y="397.38" width="134.16" height="20.5" rx="10.25"/><rect class="cls-15" x="753.61" y="311.24" width="7.65" height="235.75"/><rect class="cls-33" x="504.07" y="121.54" width="198.48" height="140.02" rx="18.21"/><rect class="cls-34" x="511.85" y="129.11" width="182.93" height="110.51"/><path class="cls-35" d="M644.4,298v-2.49S640.9,280,616.12,280s-24.27,18-24.27,18Z"/><path class="cls-25" d="M591.55,282.32s5.38-.41,7.35-1.6,13.77-9.13,16.54-7.86,21.22,6.92,20.58,9.62-2.35,2.44-3.65,2-14.69-3.29-15.88-2.82c0,0,13.16,4.8,13.21,8.3s-2.75,4.36-4,5.68-2.74,4.62-6.13,4.87-19.94-5.51-23.34-5.77-9.71.21-10.14-.34S591.55,282.32,591.55,282.32Z"/><path class="cls-20" d="M493.55,192.12c-17.16-3-35.23-7.35-35.23-7.35l-32-1.3s-29.33,6.46-40.89,11.68c-1.09.49-1.1,26.17-4.1,32.9l9.57,20.21s5.54,40,6.68,57.83c.53,8.17-1.49,79-1.49,79s2.88,1.42,24.69,3.82,76.32-.87,76.66-3.44-10.55-95.94-11-100.78c-.74-7.42,2.15-41.71,2.15-41.71,4.11,5.52,14.59,30.45,25.51,42.32,6.42,7,38.23,11.25,44.23,11.45,13,.44,36.86,3,37.56,1.77.56-.76,2.07-21.14.58-21.63-1.3-.44-45.52-3-56.85-9-4.14-2.2-16.53-29.21-16.53-29.21S503,196.37,493.55,192.12Z"/><rect class="cls-32" x="357.47" y="254.88" width="92.52" height="128.14" rx="35.05"/><path class="cls-32" d="M433.6,412.78c-13.64,0-24.71-4.58-32.89-13.62-18.49-20.42-15.17-56.31-15-57.83a5.15,5.15,0,0,1,10.25,1c-.05.41-3,33,12.42,49.93,6.24,6.87,14.49,10.21,25.24,10.21a5.15,5.15,0,0,1,0,10.3Z"/><rect class="cls-36" x="524.82" y="137.91" width="53.59" height="5.84" rx="2.61"/><rect class="cls-36" x="524.82" y="150.44" width="53.59" height="5.84" rx="2.61"/><rect class="cls-36" x="524.82" y="164.8" width="53.59" height="66.02" rx="8.78"/><rect class="cls-36" x="589.22" y="137.91" width="95.43" height="92.9" rx="13.9"/><path class="cls-37" d="M763,223.3a21.65,21.65,0,1,1,18.52-10.44A21.66,21.66,0,0,1,763,223.3Z"/><path class="cls-38" d="M741,221.36a15.16,15.16,0,0,1-15.16-15.16,13.56,13.56,0,0,1,.07-1.43A15.14,15.14,0,1,1,741,221.36Z"/><path class="cls-39" d="M763.37,202.78s1.21,10.06,1.61,23.74-10.46,13.67-10.46,13.67v50.1H747s.18-51.1-3.58-55.21-3.75-23.6-3.75-23.6l2.15-1.25s-3.22,23.06,11.44,26.46,9.12-32.9,9.12-32.9Z"/><path class="cls-40" d="M768.38,205.13c-12.43-2.32-20.62-7.7-25-12.53a21.65,21.65,0,1,1,38.2,20.26C781,209.92,777.72,206.87,768.38,205.13Z"/><path class="cls-41" d="M736.6,210.36c-5-1.45-8.43-3.43-10.66-5.59a15.15,15.15,0,1,1,23.38,14.11C747.79,216,744.31,212.58,736.6,210.36Z"/><polygon class="cls-42" points="728.07 267 779.03 267 776.4 276.46 731.22 276.46 728.07 267"/><polygon class="cls-43" points="734.44 276.46 772.25 276.46 767 297.85 738.11 297.85 734.44 276.46"/><path class="cls-41" d="M739.65,193l-1.31.41s-2.05-5.59-2.19-6.35S739.65,193,739.65,193Z"/><path class="cls-41" d="M727.3,193.36l6.48,2s0,.58-.89.58S727.3,193.36,727.3,193.36Z"/><path class="cls-41" d="M729.54,206.94h1.65a8.83,8.83,0,0,1-1.65,4C728.2,212.53,729.54,206.94,729.54,206.94Z"/><path class="cls-40" d="M769.32,175.92c.67.5-2.37,7.91-2.37,7.91h-1.52S768.65,175.43,769.32,175.92Z"/><path class="cls-40" d="M762.26,182c-.27-2,1.29-5.41,1.29-5.41v5.1S762.53,184,762.26,182Z"/><path class="cls-40" d="M774.24,211.24c-.94-.76-1-7.51-1-7.51l1.48.53S775.18,212,774.24,211.24Z"/><path class="cls-44" d="M747,276.46h25.29L767,297.85h-8.28C763.4,280.64,747,276.46,747,276.46Z"/><path class="cls-45" d="M765.67,297.85c-2.07-.86-5.42-10.66-7-15.73-.57-1.8-.92-3-.92-3h19c-1.64,11.71-5.62,18.74-5.62,18.74Z"/><path class="cls-46" d="M764.15,273.27c0-.68-3-3.53-4.57-5.39s.59-5.4.59-5.4c6.79,2.81,5.62,10.79,5.62,10.79S764.15,274,764.15,273.27Z"/><path class="cls-46" d="M768,273.58h-.82s-.58-13.8,4.46-15.67,5-5.62,5-5.62,1.52,5.15-.94,7.85-5.27,5.85-4.8,8.43S768,273.58,768,273.58Z"/><path class="cls-47" d="M758.63,282.12c-.57-1.8-.92-3-.92-3h19c-1.64,11.71-5.62,18.74-5.62,18.74h-1.24C770.05,286.88,762.83,283.28,758.63,282.12Z"/><polygon class="cls-48" points="757.71 273.27 776.83 273.27 777.91 279.11 756.93 279.11 757.71 273.27"/><path class="cls-32" d="M472.28,129.45s-5.5,16.49-46.14,23.45l-4-5.47s35.93-3.93,49.22-24.45Z"/><path class="cls-32" d="M400.6,162.92c-4,2.24-3.48,12.94-3.48,12.94h7S404.58,165.16,400.6,162.92Z"/><rect class="cls-32" x="399.96" y="132.56" width="1.29" height="33.54"/><polygon class="cls-49" points="387.75 134.76 443.32 155.49 493.43 110.44 435.94 95.64 387.75 134.76"/><path class="cls-50" d="M854,385.36h181.75a0,0,0,0,1,0,0v68a0,0,0,0,1,0,0H854a22.62,22.62,0,0,1-22.62-22.62V408A22.62,22.62,0,0,1,854,385.36Z" transform="translate(1867.22 838.7) rotate(180)"/><path class="cls-51" d="M787.16,508.67H1013.7a0,0,0,0,1,0,0v46.52a0,0,0,0,1,0,0H787.16a16.25,16.25,0,0,1-16.25-16.25v-14A16.25,16.25,0,0,1,787.16,508.67Z" transform="translate(1784.6 1063.86) rotate(180)"/><path class="cls-52" d="M746,513.75v36.36h-6.17v5.08H849.52a6.22,6.22,0,0,0,6.22-6.22V514.9a6.23,6.23,0,0,0-6.22-6.23H739.83v5.08Z"/><path class="cls-53" d="M756.8,513.75h93.38a0,0,0,0,1,0,0v36.35a0,0,0,0,1,0,0H756.8A10.79,10.79,0,0,1,746,539.31V524.55a10.79,10.79,0,0,1,10.79-10.79Z" transform="translate(1596.19 1063.86) rotate(180)"/><path class="cls-52" d="M798.72,392.36v54h-3.34v7h139a13,13,0,0,0,13-12.95V398.32a13,13,0,0,0-13-13h-139v7Z"/><path class="cls-53" d="M822.09,392.36H940.22a0,0,0,0,1,0,0v54a0,0,0,0,1,0,0H822.09A23.38,23.38,0,0,1,798.72,423v-7.24A23.37,23.37,0,0,1,822.09,392.36Z" transform="translate(1738.94 838.7) rotate(180)"/><path class="cls-54" d="M900.52,453.34h176.7a0,0,0,0,1,0,0v55.32a0,0,0,0,1,0,0H900.52A27.66,27.66,0,0,1,872.86,481v0A27.66,27.66,0,0,1,900.52,453.34Z" transform="translate(1950.08 962.01) rotate(-180)"/><path class="cls-55" d="M840.15,459V503h-3.34v5.69H972.74a16,16,0,0,0,16-16V469.36a16,16,0,0,0-16-16H836.81V459Z"/><path class="cls-53" d="M862.12,459h120a0,0,0,0,1,0,0V503a0,0,0,0,1,0,0h-120a22,22,0,0,1-22-22v0A22,22,0,0,1,862.12,459Z" transform="translate(1822.24 962.01) rotate(-180)"/><rect class="cls-56" x="862.36" y="473.05" width="53.94" height="1.39" transform="translate(1778.66 947.48) rotate(180)"/><rect class="cls-56" x="883.99" y="477.27" width="57.59" height="1.39" transform="translate(1825.57 955.93) rotate(180)"/><rect class="cls-56" x="758.98" y="523.16" width="53.94" height="1.39" transform="translate(1571.89 1047.71) rotate(180)"/><rect class="cls-56" x="780.6" y="527.38" width="57.59" height="1.39" transform="translate(1618.8 1056.15) rotate(180)"/><rect class="cls-56" x="820.13" y="531.24" width="23.83" height="1.39" transform="translate(1664.09 1063.86) rotate(180)"/><rect class="cls-56" x="861.78" y="428.86" width="57.59" height="1.39" transform="translate(1781.15 859.11) rotate(180)"/><rect class="cls-56" x="857.03" y="432.72" width="23.83" height="1.39" transform="translate(1737.9 866.82) rotate(180)"/><path class="cls-57" d="M886,359.77h91.12a0,0,0,0,1,0,0v25.59a0,0,0,0,1,0,0H886a12.74,12.74,0,0,1-12.74-12.74v-.11A12.74,12.74,0,0,1,886,359.77Z"/><path class="cls-7" d="M993.74,362.4v20.33h1.7v2.63H925.28a7.06,7.06,0,0,1-7.06-7.06V366.83a7.06,7.06,0,0,1,7.06-7.06h70.16v2.63Z"/><path class="cls-8" d="M933.56,362.4h60.19a0,0,0,0,1,0,0v20.32a0,0,0,0,1,0,0H933.56a10.16,10.16,0,0,1-10.16-10.16v0A10.16,10.16,0,0,1,933.56,362.4Z"/><path class="cls-58" d="M881.68,330h100a0,0,0,0,1,0,0v29.76a0,0,0,0,1,0,0h-100a14.88,14.88,0,0,1-14.88-14.88v0A14.88,14.88,0,0,1,881.68,330Z"/><path class="cls-10" d="M1000.44,333.07V356.7h1.46v3.07H944.27a8.89,8.89,0,0,1-8.88-8.88v-12a8.89,8.89,0,0,1,8.88-8.88h57.63v3.07Z"/><path class="cls-8" d="M951.67,333.07h48.77a0,0,0,0,1,0,0V356.7a0,0,0,0,1,0,0H951.67a11.82,11.82,0,0,1-11.82-11.82v0a11.82,11.82,0,0,1,11.82-11.82Z"/><path class="cls-59" d="M922.62,293.51h72.82a0,0,0,0,1,0,0V330a0,0,0,0,1,0,0H922.62a17.33,17.33,0,0,1-17.33-17.33v-1.84A17.33,17.33,0,0,1,922.62,293.51Z" transform="translate(1900.74 623.51) rotate(180)"/><path class="cls-7" d="M890.87,297.27v29H889.4V330h57.42a9.6,9.6,0,0,0,9.6-9.6V303.11a9.6,9.6,0,0,0-9.6-9.6H889.4v3.76Z"/><path class="cls-8" d="M905.36,297.26H951.2a0,0,0,0,1,0,0v29a0,0,0,0,1,0,0H905.36a14.49,14.49,0,0,1-14.49-14.49v0a14.49,14.49,0,0,1,14.49-14.49Z" transform="translate(1842.07 623.51) rotate(180)"/><path class="cls-60" d="M888.32,257h77.28a0,0,0,0,1,0,0V293.5a0,0,0,0,1,0,0H888.32a18.21,18.21,0,0,1-18.21-18.21v-.06A18.21,18.21,0,0,1,888.32,257Z"/><path class="cls-10" d="M980.89,260.77v29h1.57v3.75H921.55a10.1,10.1,0,0,1-10.1-10.09v-16.3a10.1,10.1,0,0,1,10.1-10.1h60.91v3.76Z"/><path class="cls-8" d="M931.24,260.77h49.66a0,0,0,0,1,0,0v29a0,0,0,0,1,0,0H931.24a14.49,14.49,0,0,1-14.49-14.49v0A14.49,14.49,0,0,1,931.24,260.77Z"/><path class="cls-61" d="M905.5,229.39H989.7a0,0,0,0,1,0,0V257a0,0,0,0,1,0,0H905.5A11.31,11.31,0,0,1,894.2,245.7v-5A11.31,11.31,0,0,1,905.5,229.39Z"/><path class="cls-10" d="M1005,232.23v21.93h1.56V257H941.8a6.26,6.26,0,0,1-6.26-6.26V235.66a6.27,6.27,0,0,1,6.26-6.27h64.74v2.84Z"/><path class="cls-8" d="M951.26,232.23H1005a0,0,0,0,1,0,0v21.93a0,0,0,0,1,0,0H951.26a11,11,0,0,1-11-11v0A11,11,0,0,1,951.26,232.23Z"/></g></g></g></svg>