<svg xmlns="http://www.w3.org/2000/svg" viewBox="0 0 1502.1 681.46"><defs><style>.cls-1{isolation:isolate;}.cls-2{fill:#142666;}.cls-3{fill:#70c0fd;}.cls-4{fill:#fff;}.cls-5{fill:#4188e4;}.cls-6{fill:#183658;}.cls-7{fill:#07085b;}.cls-8,.cls-9{fill:#57ace5;}.cls-19,.cls-23,.cls-9{opacity:0.3;}.cls-12,.cls-19,.cls-23,.cls-28,.cls-29,.cls-9{mix-blend-mode:multiply;}.cls-10{fill:#026eaf;}.cls-11{fill:#09083c;}.cls-12,.cls-24,.cls-29{fill:#97cef7;}.cls-12,.cls-28{opacity:0.5;}.cls-13{fill:#ffc0bb;}.cls-14,.cls-23{fill:#f99893;}.cls-15{fill:#333;}.cls-16{fill:#81caef;}.cls-17{fill:#ef5488;}.cls-18{fill:#f4a640;}.cls-19{fill:#e87b50;}.cls-20{fill:#ea426e;}.cls-21{fill:#f76390;}.cls-22{fill:#daeef7;}.cls-25{fill:#f9b5b2;}.cls-26{fill:#feb546;}.cls-27{fill:#fee4cb;}.cls-28{fill:#e0a689;}.cls-30{fill:#c9eafd;}.cls-31{fill:#4f6f22;}</style></defs><g class="cls-1"><g id="Layer_2" data-name="Layer 2"><g id="_Layer_" data-name="&lt;Layer&gt;"><g id="classe"><rect class="cls-2" x="989.46" y="218.5" width="16.91" height="68.53"/><rect class="cls-3" x="1113.85" y="245.29" width="13.46" height="68.39" transform="translate(1400.07 -841.09) rotate(90)"/><rect class="cls-2" x="1122.95" y="231.79" width="13.46" height="68.39" transform="translate(1395.66 -863.7) rotate(90)"/><rect class="cls-4" x="1108.79" y="218.62" width="13.46" height="68.39" transform="translate(1368.34 -862.71) rotate(90)"/><rect class="cls-4" x="1008.63" y="190.89" width="17.29" height="95.12"/><rect class="cls-3" x="971.53" y="201.37" width="15.92" height="84.64"/><polygon class="cls-3" points="1077.29 278.22 1062.98 285.22 1025.93 209.16 1040.24 202.16 1077.29 278.22"/><rect class="cls-5" x="958.9" y="285.53" width="273.46" height="7.74"/><line class="cls-6" x1="1502.1" y1="671.57" x2="1495.57" y2="671.57"/><polygon class="cls-7" points="1390.44 538.79 1399.75 671.75 1395.09 671.75 1380.36 540.23 1390.44 538.79"/><polygon class="cls-7" points="1292.73 538.79 1283.43 671.75 1288.08 671.75 1302.81 540.23 1292.73 538.79"/><path class="cls-8" d="M1431,395s-74.36-2.21-79.18-1.86-9.26,15.82-9.26,15.82-21.72,80.59-21.29,82.8-20.26,54.15-20.26,54.15,17.85-.47,18.64,0,69-5.86,70-6.49,4.42-12.51,4.58-13.14,5.37-46.87,5.37-46.87l2.69-25.49s10.27-21.87,10.42-21.94,9.64-19.22,10.27-20.17,10.43-11.56,10.75-12.51S1431,395,1431,395Z"/><path class="cls-9" d="M1431,395s-25.64-.76-47.78-1.32c8.61,5.06,13.43,19.23,9.85,44.42-3,21.42-6.43,44.65-19.91,72.52-6.94,14.35-36.84,6.31-61.35,7.73-5.28,13.71-10.8,27.56-10.8,27.56s17.85-.47,18.64,0,69-5.86,70-6.49,4.42-12.51,4.58-13.14,5.37-46.87,5.37-46.87l2.69-25.49s10.27-21.87,10.42-21.94,9.64-19.22,10.27-20.17,10.43-11.56,10.75-12.51S1431,395,1431,395Z"/><path class="cls-10" d="M1287.46,548.7h0a4.63,4.63,0,0,1,4.3-4.91c7.94-.54,25.13-1.77,42.8-3.45,33.88-3.21,46.13-5.84,50.52-7.22a4.56,4.56,0,0,0,3.06-3.24c1.19-4.74,1.89-14.57,2.47-22.79,2.21-31.2,5.86-82.65,37.92-110.9a4.6,4.6,0,0,1,6.7.67h0a4.61,4.61,0,0,1-.6,6.28c-29.2,25.64-32.56,72.94-34.8,104.61-1.28,18-2.07,26.92-6,31-1.9,2-5.44,5.69-57,10.64-18.28,1.76-36.27,3-44.48,3.6A4.61,4.61,0,0,1,1287.46,548.7Z"/><path class="cls-11" d="M190.81,179H607.66a12.52,12.52,0,0,1,12.52,12.52V437a24,24,0,0,1-24,24H190.81a24,24,0,0,1-24-24V203A24,24,0,0,1,190.81,179Z"/><rect class="cls-3" x="174.77" y="189.82" width="437.24" height="260.31" rx="4.89"/><path class="cls-12" d="M612,220.81v-28a2.78,2.78,0,0,0-2.51-3H177.27a2.78,2.78,0,0,0-2.5,3v176Z"/><polygon class="cls-13" points="175.34 311.14 175.39 314.7 175.79 323.57 158.34 321.27 156.44 318.68 156.29 311.95 155.71 305.64 167.31 305.64 175.34 311.14"/><path class="cls-13" d="M191.43,527.35a25.42,25.42,0,0,1,0,8.94c-.87,5-23.5,124.31-23.5,124.31l11.94,1.75s39-110.8,41.16-118.21,4.57-17.88-2.83-25.95S191.43,527.35,191.43,527.35Z"/><path class="cls-13" d="M197.72,664.05,183.43,646.8l-14.29,5.94,3.58,5,15.57,7.83s6.65,1.34,7,1.24A22.13,22.13,0,0,0,197.72,664.05Z"/><path class="cls-7" d="M197.72,664.05l3.1,3.89a2.29,2.29,0,0,1-2.49,3.62l-30-10a2,2,0,0,1-1.28-2.56l2.09-6.29C187,665.75,194.54,666.11,197.72,664.05Z"/><path class="cls-7" d="M148.29,263.26a15.81,15.81,0,0,0-16,0c-8.49,4.89-8.49,21.4-5.15,25.35s-.17,9.3,6.52,14.46,17.35,7.05,23.43,1,1.62-19.47,1.62-19.47Z"/><path class="cls-13" d="M177.55,664.87l-16.42-10.26-14.26,8.54,4.95,3.57,17.24,2.52s6.73-.83,7-1A22.69,22.69,0,0,0,177.55,664.87Z"/><path class="cls-13" d="M137.94,516s2.35,56.85,2.57,66.67,5.22,82.66,7.39,89l12.19-.87s8.32-141,5.7-154.78S137.94,516,137.94,516Z"/><path class="cls-13" d="M111.81,469.6c-4.19-.87-5.24,1.85-9.49,1l1,6.56c-.57,1.28-1.84,4.69-1.84,4.69-4.73,13.73-4.47,12.25-4,12.51s4-4.83,4.42-4.36-2,8.65-1.31,8.43,3.89-7.48,4.3-7.21-2,8.12-1,8.4,3.48-8.42,4.24-7.86-1.94,9.41-.93,9.5c.85.08,4.11-9.73,5.13-12.86a.53.53,0,0,1,.92-.16c4.08,5.1,4.69,5.25,5.15,4.68.32-.41-1.78-6-3.44-11.27l-2.22-6.47Z"/><path class="cls-7" d="M177.55,664.87l4.16,2.71a2.29,2.29,0,0,1-1.23,4.22h-31.6a2,2,0,0,1-2-2v-6.63C167.91,669.87,175.18,667.82,177.55,664.87Z"/><path class="cls-13" d="M278.72,318.16a.51.51,0,0,0,.86.26c2.21-2.21,9.22-9.11,9.91-8.68s-5.3,6.84-4.9,7.65,6.21-5.51,7-4.81-4.7,6.28-4.47,6.69,6.06-4.38,6.77-4.25-4.9,6-4.76,6.58,5.35-2.19,5.64-1.77.55.65-9.4,10.24l-4.08,3.6-4.92,1.14-3.47-5s2.83-17.57,3.5-17.88S277.47,312.06,278.72,318.16Z"/><path class="cls-11" d="M146,516l10.11,37.5c23.35,0,58.19-2.19,75.49-13.75,0,0-22.62-105.36-37.64-131.75l-51.58-2.84s-35.77,49.93-9.65,147.64c0,0,4.46.33,11.59.54Z"/><path class="cls-14" d="M190,283.08c-1.06,2.9,0,5.95,2.27,6.81s5.07-.81,6.13-3.71.05-6-2.27-6.81S191.11,280.17,190,283.08Z"/><path class="cls-14" d="M155.52,304s.47,3.58.77,7.91a18.46,18.46,0,0,0,19.1,2.75c-.12-2.82-.08-5.44.36-6.69C176.94,304.56,155.52,304,155.52,304Z"/><path class="cls-4" d="M192.63,322.27l48.87,37.09,31.29-32.16s9.36,7.24,9.36,7.1-29.42,46-36.64,48.37-53.81-30.12-53.81-30.12Z"/><path class="cls-13" d="M189.8,299.87a23.68,23.68,0,0,0,1.66-4,44.32,44.32,0,0,0,2-11.1c.05-.73.14-1.46.24-2.19a23.93,23.93,0,0,0-22.65-27.25,23.92,23.92,0,0,0-24.91,24.75,5.16,5.16,0,0,0-4.66-.21c-2.79,1.37-3.67,5.31-2,8.81s5.35,5.22,8.14,3.85a4.51,4.51,0,0,0,1.05-.71c1.59,11.68,11.49,20.39,23,19.81A21.46,21.46,0,0,0,186,305.08c.25-.23.51-.49.78-.79A20.79,20.79,0,0,0,189.8,299.87Z"/><path class="cls-15" d="M168.3,283.39a2.24,2.24,0,1,1-2.35-2.14A2.25,2.25,0,0,1,168.3,283.39Z"/><path class="cls-15" d="M186.73,283.39a2.24,2.24,0,1,1-2.35-2.14A2.25,2.25,0,0,1,186.73,283.39Z"/><path class="cls-14" d="M175.16,279.1c0,.72,0,1.45,0,2.17s.06,1.44.13,2.16a15.12,15.12,0,0,0,.35,2.12,5.24,5.24,0,0,0,.8,1.91c.06.06.1.14.16.19l.19.19c.06.07.13.13.19.21a1,1,0,0,1,.18.23,2.32,2.32,0,0,1,.45,1.07,2.65,2.65,0,0,1-.71,2.14,4.45,4.45,0,0,1-1.85,1.21,6.1,6.1,0,0,1-2.15.35,9.55,9.55,0,0,0,1.07-.18,7.55,7.55,0,0,0,1-.35,4.32,4.32,0,0,0,1.68-1.23,2.35,2.35,0,0,0,.57-1.88,2.21,2.21,0,0,0-.38-.91l-.16-.19-.18-.18-.2-.2a2.11,2.11,0,0,1-.19-.23,4,4,0,0,1-.53-1,6.9,6.9,0,0,1-.32-1.07,13.43,13.43,0,0,1-.29-2.18A22.57,22.57,0,0,1,175.16,279.1Z"/><path class="cls-4" d="M199.12,370.73c.18-.18,7.67-8.2,6.22-23.22-.8-8.16-5-15.6-8.72-20.76a17.86,17.86,0,0,0-14.15-7.4c-10.25-.19-26.62-.41-26.62-.41s-21.11-2.32-27.81,5.93-29.35,65.55-30.64,92.9,5.41,59.6,5.41,59.6,7.47.52,10.81,0-.77-52.89,2.84-61.41,19.82-49.28,20.85-53.15l4,21.34a22.07,22.07,0,0,1-1,11.75c-3.41,9.21-10,26.9-12.64,33.45,0,0,50.69,8.18,75.67-4.21l-.23-1A171.33,171.33,0,0,1,199.12,370.73Z"/><path class="cls-7" d="M170.19,279.63a14,14,0,0,0-3.16-1.21,9.79,9.79,0,0,0-3.27-.25,8,8,0,0,0-1.61.3c-.26.07-.52.17-.78.26a2.54,2.54,0,0,0-.38.16l-.38.16a16.89,16.89,0,0,0-2.88,1.81,9.1,9.1,0,0,1,2.58-2.36,7.74,7.74,0,0,1,1.62-.76,7.37,7.37,0,0,1,1.75-.37,8.11,8.11,0,0,1,3.53.45,8.64,8.64,0,0,1,1.6.75A7.55,7.55,0,0,1,170.19,279.63Z"/><path class="cls-7" d="M179.24,279.63a7.62,7.62,0,0,1,1.39-1.06,8.26,8.26,0,0,1,1.59-.75,8.12,8.12,0,0,1,3.53-.45,7.56,7.56,0,0,1,1.76.37,7.66,7.66,0,0,1,1.61.76,9,9,0,0,1,2.58,2.36,16.82,16.82,0,0,0-2.87-1.81l-.38-.16a3.2,3.2,0,0,0-.39-.16c-.26-.09-.51-.19-.78-.26a8,8,0,0,0-1.61-.3,9.79,9.79,0,0,0-3.27.25A14,14,0,0,0,179.24,279.63Z"/><path class="cls-13" d="M151.89,318.68s16.13,20.49,19.56,27.88c0,0,9.47-12.45,9.88-27.29Z"/><path class="cls-16" d="M171.45,346.56c.44,7.1.71,14.22.87,21.33.09,3.56.12,7.12.17,10.68s0,7.12,0,10.68c0,1.78,0,3.56-.08,5.34s-.06,3.56-.11,5.33c-.13,3.56-.22,7.12-.43,10.68-.38,7.11-.92,14.22-2,21.27l.18-2.67.2-2.66c.11-1.77.18-3.55.27-5.32l.08-1.33,0-1.34.1-2.66.11-2.66.06-2.67c.21-7.1.31-14.21.37-21.32s.08-14.22.1-21.34Z"/><path class="cls-16" d="M139.07,356.06c-.11.57-.19,1.15-.31,1.72s-.23,1.14-.38,1.71a22.93,22.93,0,0,1-1.07,3.32,26.3,26.3,0,0,0,.79-3.38c.22-1.14.37-2.29.52-3.43.27-2.3.42-4.6.48-6.91l.05-1.73v-1.74c0-1.16-.06-2.31-.08-3.47,0-.58-.06-1.15-.08-1.73l-.09-1.74c-.07-1.15-.18-2.31-.24-3.47.2,1.15.36,2.3.52,3.45s.26,2.31.34,3.47l.11,1.74c0,.58,0,1.16.06,1.74l0,1.75Z"/><path class="cls-7" d="M192.35,261.08c-4.42-15.22-24.6-15.75-24.6-15.75-31.2,2.16-26.28,29.59-25.25,34.13a5,5,0,0,1,3.65.64,8.56,8.56,0,0,1,1.57,1.07c3.67-1.12,4.79-7.24,6.69-10.18,2.58-4,14-1.94,18.27-4.77a10.66,10.66,0,0,0,4.76-7.22c16.65,2.64,16.39,20.26,16.39,20.26a6.21,6.21,0,0,1,1.61-.08S196.3,274.68,192.35,261.08Z"/><path class="cls-4" d="M181.28,295.7c-.57,2.34-3.29,4.14-6.58,4.17s-6-1.7-6.66-4Z"/><ellipse class="cls-11" cx="341.33" cy="71.79" rx="71.64" ry="71.79"/><ellipse class="cls-4" cx="341.33" cy="71.79" rx="61.34" ry="61.47"/><rect class="cls-11" x="285.79" y="60.14" width="1.74" height="22.61" transform="translate(215.22 358.11) rotate(-90)"/><rect class="cls-11" x="395.26" y="60.14" width="1.74" height="22.61" transform="translate(324.68 467.57) rotate(-90)"/><rect class="cls-11" x="340.36" y="6.15" width="1.74" height="22.66"/><rect class="cls-11" x="340.36" y="115.4" width="1.74" height="22.66"/><path class="cls-11" d="M343.2,71.79a1.88,1.88,0,1,1-1.87-1.88A1.87,1.87,0,0,1,343.2,71.79Z"/><path class="cls-11" d="M341.33,72.62a.86.86,0,0,1-.6-.24L307.1,38.67a.83.83,0,1,1,1.18-1.18l33.64,33.7a.84.84,0,0,1-.59,1.43Z"/><path class="cls-11" d="M352.14,105.85a.6.6,0,0,1-.3-.36L341,72.59a.61.61,0,0,1,.39-.77.6.6,0,0,1,.77.38L353,105.11a.61.61,0,0,1-.85.74Z"/><path class="cls-5" d="M1197.9,240.57a18.42,18.42,0,0,0-1.59-6.53c-1.26-2.43-3.48-4.18-5.42-6.11a33.86,33.86,0,0,1-8.08-12.88c-1.3-3.74-1.94-7.72-3.72-11.25-1.09-2.16-2.58-4.09-3.81-6.16-2.93-4.9-4.52-10.7-8.48-14.8a17.76,17.76,0,0,0,4,14.07,24.8,24.8,0,0,1,2.85,3.47c1.35,2.37,1.23,5.25,1.38,8a35,35,0,0,0,4.19,14.65c2.6,4.77,6.35,9,7.74,14.28,1,3.95.73,8.36,3,11.78a3,3,0,0,1,.57,1.18,2.63,2.63,0,0,1,0,.74l-.15,1c-.51,3.23-1,7.33,1.74,9.74,1.92,1.68,4.39,1.71,5.77-.51s1.27-5.51,1.17-8C1198.82,248.94,1198.38,244.73,1197.9,240.57Z"/><path class="cls-3" d="M1202.9,238c-1.08-3.73-2.76-7.29-3.59-11.08a52.33,52.33,0,0,1-.83-11.26q0-6.19,0-12.39a46,46,0,0,0-.43-7.69c-.91-5.46-3.75-10.5-4.23-16-.2-2.39,0-4.8-.23-7.18a11.12,11.12,0,0,0-1.12-4,1.76,1.76,0,0,0-3.16.09,16,16,0,0,0-1.69,9.41,37.73,37.73,0,0,0,1.78,5.55c2.76,8.22,1.3,17.32,3.43,25.72.65,2.53,1.62,5,1.74,7.64.27,6.26-4.4,12-4,18.22.36,5.13,4,9.37,5.59,14.26.86,2.74,1,5.67,2,8.39.72,2.11,2.4,4.68,5,4s1.73-2.63,1.62-4.55C1204.38,250.66,1204.73,244.34,1202.9,238Z"/><path class="cls-5" d="M1208.55,241.39a29,29,0,0,1-.16-5.81,33.91,33.91,0,0,1,1.33-4.73,42.31,42.31,0,0,0,1.29-9.11l1.15-16.73c.59-8.67,1.18-17.36,2.8-25.9.45-2.37,1-4.93-.11-7.1-.22-.45-.66-.94-1.15-.78s-.51.48-.64.82c-3.54,9.63-4.88,20-8.83,29.46a37.72,37.72,0,0,0-2.54,6.91c-.59,2.89-.27,5.88-.19,8.83a41.57,41.57,0,0,1-1.47,12.56,53.26,53.26,0,0,0-1.77,6.4,34.12,34.12,0,0,0,.2,8.26,128,128,0,0,1,.51,15.91c-.1,3.12,2.54,3,4.28,1.12,1.22-1.34,1.21-2.81,1.63-4.48C1206.25,251.54,1208.88,247.33,1208.55,241.39Z"/><path class="cls-3" d="M1192.1,249.85c-2.33-3.74-7-5.87-8.46-10-.38-1.05-.53-2.19-1-3.21-1-2.27-3.36-3.55-5.66-4.6a.49.49,0,0,0-.69.44h0a1.68,1.68,0,0,0,.72,1.4,9.35,9.35,0,0,1,3.72,5.07c.71,2.43.4,5.1,1.28,7.47.74,2,2.26,3.62,3,5.63.65,1.83.59,3.83.89,5.75s1.16,4,2.93,4.77C1195.2,265.49,1193.6,252.27,1192.1,249.85Z"/><path class="cls-5" d="M1218.63,248.62c-.1,1.81.18,3.7-.53,5.37a16.16,16.16,0,0,1-1.94,2.88c-2.35,3.32-3.2,8-6.81,9.89a.94.94,0,0,1-1.52-.58c-.89-2.06.1-4.39.69-6.55a1.63,1.63,0,0,0,0-1.15c-.2-.38-.65-.55-1-.85a2.79,2.79,0,0,1-.44-2.44,56.62,56.62,0,0,1,1.29-6.32,10.93,10.93,0,0,1,1.35-3.38,14.93,14.93,0,0,1,2.85-2.82,33.7,33.7,0,0,0,9.86-14.56,9.67,9.67,0,0,1,1.65-3.45,2.76,2.76,0,0,1,3.45-.7c.75.53-2.31,5.44-2.67,6-1,1.69-1,3.15-1.61,5C1221.89,239.6,1218.9,243.71,1218.63,248.62Z"/><path class="cls-3" d="M1215.07,250.71a22.15,22.15,0,0,0,1.56-5.31c.25-2-.08-4.13.27-6.16.45-2.61,2-4.9,2.72-7.44a48.43,48.43,0,0,0,1-5.63c.93-5.38,3.46-10.64,2.73-16.06-.16-1.17-.69-2.55-1.86-2.75a2.26,2.26,0,0,0-2.29,1.83,9.88,9.88,0,0,0,0,3.21,13.22,13.22,0,0,1-2.37,8.49c-1.66,2.36-4.07,4.13-5.57,6.59-1.83,3-2.08,6.7-3,10.11-1.86,6.78-6.53,12.69-7.38,19.67-.34,2.77.31,6.15,2.88,7.26C1211.16,267.73,1213.39,255.05,1215.07,250.71Z"/><path class="cls-4" d="M1202.12,255.81h-17a1.8,1.8,0,0,0-1.75,2.22l6.2,26.15a1.79,1.79,0,0,0,1.75,1.38h20.43a1.8,1.8,0,0,0,1.75-1.38l6.2-26.15a1.8,1.8,0,0,0-1.75-2.22Z"/><path class="cls-15" d="M1291.14,363.92c3.75-14.59,9.71-20.38,20.07-25.83a34.22,34.22,0,0,1,26.92-2.4c19.61,6.35,24.67,27.85,26.65,39,6.76,37.88,38.44,70.11,26.91,96S1326,493.84,1326,493.84L1301.22,476s-2.21-43.56-2.21-47.11-9.41-3.3-9.41-21.1C1289.6,393.55,1286.74,381.09,1291.14,363.92Z"/><path class="cls-13" d="M1225.41,417.51a.55.55,0,0,1-.89.39c-2.69-2.1-11.19-8.66-11.88-8.09s6.63,6.71,6.31,7.64-7.45-5.15-8.21-4.29,5.92,6.18,5.72,6.66-7.14-3.95-7.89-3.71,6.09,5.85,6,6.5-6.08-1.67-6.34-1.17-.51.78,11.53,9.85l4.89,3.37,5.48.59,3.11-5.86s-5.37-18.67-6.13-18.91S1226,410.74,1225.41,417.51Z"/><path class="cls-17" d="M1307.36,409s-42,47.6-43.73,47.81S1233.74,424,1233.74,424s-10.08,8.39-11.83,11.3c0,0,30,50.08,37.76,52.92s58.95-45.51,58.95-45.51Z"/><path class="cls-18" d="M1302.46,470.23l.51.26s0-.39.12-1.07C1302.88,469.69,1302.67,470,1302.46,470.23Z"/><path class="cls-13" d="M1341.35,409.41a17.61,17.61,0,0,0-4.43,7.76c-2.86,10.24-12.39,43.48-16.41,45.74-4.75,2.68-64.87,15.56-70.81,15s-11.54,5.41-12.73,10h100.77s20.16-24.83,22.41-51C1362.16,413.67,1351.3,399.48,1341.35,409.41Z"/><path class="cls-13" d="M1333.63,390v16.8a2.4,2.4,0,0,1-1.38,2.18c-2.56,1.2-8.29,3.18-13.64,0a2.36,2.36,0,0,1-1.15-2.06V391.79Z"/><path class="cls-14" d="M1333.63,399v-9l-16.17,1.78v7.63C1320.49,400.34,1326.14,401.26,1333.63,399Z"/><path class="cls-13" d="M1306.83,387.14a21.2,21.2,0,0,1-1.38-3.66,40.32,40.32,0,0,1-1.48-10.1c0-.67-.07-1.34-.14-2a21.65,21.65,0,1,1,43.12-.78,4.67,4.67,0,0,1,4.23,0c2.48,1.32,3.16,4.92,1.51,8s-5,4.56-7.49,3.24a4.54,4.54,0,0,1-.93-.68c-1.8,10.52-11,18.1-21.41,17.21a19.42,19.42,0,0,1-12.77-6.39c-.21-.21-.44-.46-.68-.74A18.69,18.69,0,0,1,1306.83,387.14Z"/><path class="cls-15" d="M1326.36,373.8a1.74,1.74,0,1,0,3.46.3,1.74,1.74,0,1,0-3.46-.3Z"/><path class="cls-15" d="M1311.4,373.51a1.74,1.74,0,1,0,3.46.29,1.74,1.74,0,1,0-3.46-.29Z"/><path class="cls-15" d="M1324.56,370.18a17,17,0,0,1,2.54-.61,8.68,8.68,0,0,1,2.44,0,7.87,7.87,0,0,1,2.32.67l.29.12a2.49,2.49,0,0,1,.28.15l.58.3c.38.2.74.46,1.16.67a7.21,7.21,0,0,0-.77-1.15,5.87,5.87,0,0,0-1-.95,5.62,5.62,0,0,0-2.66-1.07,6,6,0,0,0-2.85.32A5.47,5.47,0,0,0,1324.56,370.18Z"/><path class="cls-15" d="M1317.56,369.94a5.55,5.55,0,0,0-2.18-1.73,5.86,5.86,0,0,0-2.82-.51,5.72,5.72,0,0,0-2.73.88,6.25,6.25,0,0,0-1.1.88,6.82,6.82,0,0,0-.84,1.1c.44-.18.81-.42,1.2-.6l.6-.26.29-.13.29-.09a7.69,7.69,0,0,1,2.37-.51,8.37,8.37,0,0,1,2.43.19A16.14,16.14,0,0,1,1317.56,369.94Z"/><path class="cls-14" d="M1320.83,371.73a24.88,24.88,0,0,0-1.93,2.73,24.11,24.11,0,0,0-1.59,3,9.66,9.66,0,0,0-.54,1.65,3.42,3.42,0,0,0,0,.46,2.35,2.35,0,0,0,0,.26.88.88,0,0,0,.09.29.64.64,0,0,0,.08.14l.08.09.15.17.33.29a7.57,7.57,0,0,0,1.44.91,10,10,0,0,0,1.56.64,18,18,0,0,1-2.64-1.95,3.71,3.71,0,0,1-.27-.29l-.12-.14,0-.08,0,0a1.29,1.29,0,0,1,0-.63,9.12,9.12,0,0,1,.54-1.51c.42-1,.92-2,1.41-3S1320.36,372.75,1320.83,371.73Z"/><polygon class="cls-13" points="1278.78 632.1 1279.78 657.01 1267.81 657.09 1266.67 633.57 1278.78 632.1"/><path class="cls-4" d="M1248.27,671.31l34.38.24a1.32,1.32,0,0,0,1.35-1.33v-1a1.36,1.36,0,0,0-1.37-1.34l-34.39-.23a1.3,1.3,0,0,0-1.34,1.32v1A1.37,1.37,0,0,0,1248.27,671.31Z"/><path class="cls-11" d="M1282.19,656.77l1.32,10.18c.16,1.26-.55,2.39-1.49,2.39l-32.7-.22a2.44,2.44,0,0,1-2.15-1.51c-.47-1-.57-2.52.88-4.53,2.89-4,12.5-5,17.17-8.39l15.24.1A2,2,0,0,1,1282.19,656.77Z"/><path class="cls-4" d="M1267.59,660.61h0a.67.67,0,0,0,.18-.82c-.66-1.4-2.69-4.81-6.77-4.14-.24,0-.39.34-.35.66h0c0,.31.26.51.48.47,3.66-.58,5.39,2.42,5.92,3.59A.37.37,0,0,0,1267.59,660.61Z"/><path class="cls-4" d="M1264.2,661.9h0a.67.67,0,0,0,.18-.83c-.65-1.4-2.69-4.8-6.77-4.13a.57.57,0,0,0-.35.66h0c0,.3.25.51.48.47,3.65-.59,5.39,2.42,5.92,3.59C1263.78,661.92,1264,662,1264.2,661.9Z"/><path class="cls-4" d="M1261.06,663.1h0a.68.68,0,0,0,.17-.83c-.65-1.39-2.69-4.8-6.76-4.13a.55.55,0,0,0-.35.66h0c0,.31.25.51.48.47,3.66-.59,5.39,2.42,5.92,3.59A.37.37,0,0,0,1261.06,663.1Z"/><path class="cls-19" d="M1273.29,669.28c2.51-8.2,6.94-9.08,9.37-8.87l.85,6.54c.16,1.26-.55,2.39-1.49,2.39Z"/><polygon class="cls-13" points="1222.48 632.1 1223.48 655.93 1211.51 656.01 1210.37 633.57 1222.48 632.1"/><path class="cls-4" d="M1192,671.31l34.39.24a1.32,1.32,0,0,0,1.34-1.33v-1a1.37,1.37,0,0,0-1.38-1.34l-34.38-.23a1.31,1.31,0,0,0-1.35,1.32v1A1.37,1.37,0,0,0,1192,671.31Z"/><path class="cls-11" d="M1225.89,656.77l1.32,10.18c.16,1.26-.55,2.39-1.49,2.39l-32.7-.22a2.44,2.44,0,0,1-2.15-1.51c-.46-1-.57-2.52.88-4.53,2.89-4,12.5-5,17.17-8.39l15.24.1A2,2,0,0,1,1225.89,656.77Z"/><path class="cls-4" d="M1211.29,660.61h0a.67.67,0,0,0,.18-.82c-.66-1.4-2.69-4.81-6.77-4.14-.24,0-.39.34-.35.66h0c0,.31.26.51.48.47,3.66-.58,5.39,2.42,5.92,3.59A.37.37,0,0,0,1211.29,660.61Z"/><path class="cls-4" d="M1207.9,661.9h0a.67.67,0,0,0,.18-.83c-.65-1.4-2.69-4.8-6.77-4.13a.57.57,0,0,0-.35.66h0c0,.3.25.51.48.47,3.65-.59,5.39,2.42,5.92,3.59C1207.48,661.92,1207.71,662,1207.9,661.9Z"/><path class="cls-4" d="M1204.76,663.1h0a.69.69,0,0,0,.18-.83c-.66-1.39-2.7-4.8-6.77-4.13a.55.55,0,0,0-.35.66h0c0,.31.25.51.48.47,3.66-.59,5.39,2.42,5.92,3.59A.37.37,0,0,0,1204.76,663.1Z"/><path class="cls-19" d="M1217,669.28c2.51-8.2,6.94-9.08,9.37-8.87l.85,6.54c.16,1.26-.55,2.39-1.49,2.39Z"/><path class="cls-11" d="M1272,502.08s-59.51.21-68.7,12.18-16.16,92.77,0,128.11c0,0,20.94.74,25.72-2.21,0,0-1.47-59.64-.74-75.47s11.76-18,13.23-19.51S1272,502.08,1272,502.08Z"/><path class="cls-11" d="M1278.69,588.78c-.54-5-1.23-11.44-2-18.75h0c-1.34-14.37-3-23-1.24-22.8,14.34,1.38,53.33-5.58,76.37-10.08,14-2.74,22-18,15.81-30.91a15.25,15.25,0,0,0-2.86-4.16c-10.75-10.75-33-7.3-32.93-8.8-125.66,10.49-98,32.06-86.18,106.55h0c.06.31.13.63.19.95h0c5.11,24.63,9.94,44.9,9.94,44.9s18.37.74,29-1.84C1284.83,644,1281.51,614.87,1278.69,588.78Z"/><path class="cls-20" d="M1356.2,406.45c-4.1-3.87-13.8-4.75-22.77-4.63l.2.09c-7.87,8.76-16.17,1-16.17,1h0c-1.61.19-2.55.33-2.55.33s-6,2.83-12.39,10.82c-.09.11-7,7.5-7.67,16.27-.49,6.25,7.53,15.38,7.53,19s-3.7,29.47-3.7,29.47l1.4-.18v.18c0,.32-2.86.78-6.51,1.23-.17,4.62-.25,7.5-.25,7.5v9c47.82,7.94,76.46,21.34,76.46,21.34C1372.15,424.63,1356.83,407.06,1356.2,406.45Z"/><path class="cls-21" d="M1341.35,409.41a17.61,17.61,0,0,0-4.43,7.76c-2.86,10.24-12.39,43.48-16.41,45.74-3.78,2.13-42.55,10.71-61.27,13.87,0,0,1.37,5.59,2.6,11.14h75.9s20.16-24.83,22.41-51C1362.16,413.67,1351.3,399.48,1341.35,409.41Z"/><path class="cls-7" d="M1108.86,416.64h90.48L1225,479.39h43.59a2.2,2.2,0,0,1,2.2,2.21h0a2.2,2.2,0,0,1-2.2,2.21H1138.93Z"/><path class="cls-22" d="M1153.72,452.45c.54,2.67,2.86,4.46,5.2,4s3.79-3,3.26-5.69-2.86-4.46-5.2-4S1153.19,449.77,1153.72,452.45Z"/><path class="cls-15" d="M1311.17,345.61s24.3,22.44,35.78,25c0,0,1.53-17.39,1.38-18s-14.55-14.29-15.45-14.14-27,3.87-27,3.87l-7.17,17.71Z"/><path class="cls-15" d="M1297.38,350.38l6.34,18s12.78-9.05,17.71-18-12.76-5.66-12.76-5.66Z"/><path class="cls-23" d="M1326.13,385.4a5.52,5.52,0,0,0-4.52.93s-2.5-1.33-4.28.23a4.56,4.56,0,0,0,5,3A4.08,4.08,0,0,0,1326.13,385.4Z"/><path class="cls-14" d="M1328.09,384a11.13,11.13,0,0,1-1.32,1.08,10.81,10.81,0,0,1-1.44.9,10.34,10.34,0,0,1-3.16,1.1,8.84,8.84,0,0,1-3.32-.14,11.85,11.85,0,0,1-3.13-1.3,10,10,0,0,0,1.44,1,9.78,9.78,0,0,0,1.6.66,7.79,7.79,0,0,0,1.72.32,8,8,0,0,0,1.76-.08,8.9,8.9,0,0,0,3.25-1.23A9.76,9.76,0,0,0,1328.09,384Z"/><rect class="cls-4" x="256.04" y="442.97" width="34.97" height="7.15"/><rect class="cls-4" x="311.96" y="442.97" width="34.97" height="7.15"/><rect class="cls-4" x="971.53" y="208.04" width="15.92" height="5.49"/><rect class="cls-24" x="993.18" y="224.29" width="9.48" height="26.14"/><rect class="cls-24" x="1008.63" y="201.37" width="17.29" height="4.13"/><rect class="cls-24" x="1008.63" y="272.71" width="17.29" height="5.41"/><polygon class="cls-7" points="982.35 538.61 991.65 671.57 987 671.57 972.27 540.05 982.35 538.61"/><polygon class="cls-7" points="884.64 538.61 875.34 671.57 879.99 671.57 894.72 540.05 884.64 538.61"/><path class="cls-8" d="M1023,394.77s-74.36-2.2-79.18-1.86-9.26,15.82-9.26,15.82-21.72,80.59-21.29,82.8S893,545.68,893,545.68s17.85-.47,18.64,0,69-5.85,70-6.49,4.43-12.51,4.59-13.14,5.37-46.87,5.37-46.87l2.68-25.49s10.27-21.87,10.43-21.94,9.64-19.22,10.27-20.17,10.43-11.56,10.75-12.51S1023,394.77,1023,394.77Z"/><path class="cls-9" d="M1023,394.77s-25.64-.76-47.78-1.32c8.6,5.07,13.43,19.23,9.85,44.43-3,21.41-6.43,44.65-19.91,72.51-6.94,14.35-36.84,6.31-61.35,7.73-5.28,13.71-10.8,27.56-10.8,27.56s17.85-.47,18.64,0,69-5.85,70-6.49,4.43-12.51,4.59-13.14,5.37-46.87,5.37-46.87l2.68-25.49s10.27-21.87,10.43-21.94,9.64-19.22,10.27-20.17,10.43-11.56,10.75-12.51S1023,394.77,1023,394.77Z"/><path class="cls-10" d="M879.37,548.52h0a4.62,4.62,0,0,1,4.29-4.91c8-.54,25.14-1.77,42.81-3.44C960.35,537,972.6,534.32,977,533a4.59,4.59,0,0,0,3.07-3.25c1.19-4.73,1.88-14.56,2.47-22.79,2.21-31.2,5.86-82.65,37.92-110.9a4.61,4.61,0,0,1,6.7.67h0a4.61,4.61,0,0,1-.6,6.28c-29.2,25.65-32.56,72.94-34.8,104.61-1.28,18.06-2.07,26.92-6,31-1.9,2-5.44,5.69-57,10.64-18.28,1.76-36.27,3-44.48,3.6A4.61,4.61,0,0,1,879.37,548.52Z"/><polygon class="cls-13" points="819.63 630.93 816.82 653.59 801.65 654.77 801.89 633.76 819.63 630.93"/><path class="cls-4" d="M778.61,671.36l41.43.28a1.6,1.6,0,0,0,1.62-1.6v-1.19a1.65,1.65,0,0,0-1.65-1.62L778.58,667a1.59,1.59,0,0,0-1.63,1.59v1.2A1.66,1.66,0,0,0,778.61,671.36Z"/><path class="cls-20" d="M819.47,653.84l1.59,12.26c.2,1.52-.65,2.88-1.79,2.88l-39.39-.27a2.94,2.94,0,0,1-2.59-1.82c-.56-1.21-.68-3,1.06-5.46,3.48-4.85,15.06-6,20.69-10.1l18.35.13A2.43,2.43,0,0,1,819.47,653.84Z"/><path class="cls-4" d="M801.89,658.47h0a.81.81,0,0,0,.21-1c-.78-1.68-3.24-5.79-8.15-5-.28,0-.47.41-.42.79v0c.05.37.31.61.58.57,4.41-.71,6.49,2.91,7.13,4.32C801.38,658.49,801.65,658.61,801.89,658.47Z"/><path class="cls-4" d="M797.81,660h0a.83.83,0,0,0,.22-1c-.79-1.68-3.25-5.79-8.16-5-.28,0-.47.41-.42.79v0c0,.37.31.61.59.57,4.4-.71,6.49,2.91,7.12,4.32C797.3,660,797.58,660.16,797.81,660Z"/><path class="cls-4" d="M794,661.46h0a.8.8,0,0,0,.21-1c-.78-1.69-3.24-5.79-8.15-5a.69.69,0,0,0-.42.8h0c.05.37.31.62.58.57,4.41-.71,6.49,2.91,7.13,4.32C793.51,661.48,793.78,661.6,794,661.46Z"/><path class="cls-19" d="M808.76,668.9c3-9.87,8.36-10.93,11.28-10.68l1,7.88c.2,1.52-.65,2.88-1.79,2.88Z"/><polygon class="cls-25" points="889.61 444.53 887.11 470.65 897.06 472.55 902.54 462.2 901.64 448.48 893.9 443.09 889.61 444.53"/><path class="cls-18" d="M899.71,403.36s-10.1,26.35-10.1,41.17a20.59,20.59,0,0,0,12.93,2.53c7.63-.95,1.22-31,1.5-31.83S899.71,403.36,899.71,403.36Z"/><polygon class="cls-13" points="842.91 631.41 836.21 653.28 820.77 653.39 823.46 637.42 842.91 631.41"/><path class="cls-25" d="M932.14,463.53l-18.55,28-24.66-4.87-41.84-31.28,7.34-10.88s39.2,23.55,42.54,24.21S909.4,448.1,909.4,448.1Z"/><path class="cls-4" d="M798.61,671.76,840,672a1.59,1.59,0,0,0,1.63-1.59v-1.2a1.66,1.66,0,0,0-1.66-1.62l-41.42-.28A1.6,1.6,0,0,0,797,669v1.19A1.65,1.65,0,0,0,798.61,671.76Z"/><path class="cls-21" d="M839.47,654.25l1.59,12.26c.19,1.51-.66,2.88-1.79,2.87l-39.39-.27a2.91,2.91,0,0,1-2.59-1.81c-.56-1.21-.69-3,1.05-5.46,3.49-4.86,15.07-6,20.7-10.1l18.34.12A2.46,2.46,0,0,1,839.47,654.25Z"/><path class="cls-4" d="M821.88,658.87h0a.79.79,0,0,0,.22-1c-.79-1.69-3.24-5.79-8.15-5a.68.68,0,0,0-.43.8h0c.05.37.31.62.58.57,4.4-.71,6.49,2.91,7.13,4.32A.45.45,0,0,0,821.88,658.87Z"/><path class="cls-4" d="M817.81,660.42h0a.8.8,0,0,0,.21-1c-.79-1.69-3.24-5.79-8.15-5a.69.69,0,0,0-.42.8h0c0,.37.31.61.58.57,4.4-.71,6.49,2.91,7.13,4.32C817.3,660.44,817.57,660.56,817.81,660.42Z"/><path class="cls-4" d="M814,661.87h0a.81.81,0,0,0,.21-1c-.79-1.68-3.24-5.79-8.15-5a.66.66,0,0,0-.42.8h0c.05.37.31.61.58.57,4.4-.71,6.49,2.91,7.13,4.32A.46.46,0,0,0,814,661.87Z"/><path class="cls-19" d="M828.76,669.31c3-9.88,8.35-10.94,11.28-10.69l1,7.89c.19,1.51-.66,2.88-1.79,2.87Z"/><path class="cls-11" d="M974.69,517.67c-2.11-19.63-25.36-19.95-25.36-19.95l-12.51-1.08-.3-2.66s-86.26-10.27-98.06,28.86S817.72,639.4,817.72,639.4s11.39,6.92,26.84,0c0,0,21.86-83.14,30.05-91.29s67-9.5,67-9.5S976.8,537.31,974.69,517.67Z"/><path class="cls-26" d="M893.9,483.16s2-71.57,5.81-79.8,17.15-9.82,17.15-9.82,34.86-5.17,43.92,3.39c.67.64,16.43,21.55,13.91,120.74,0,0-29.93-16.46-80.79-24.91Z"/><path class="cls-13" d="M936.77,379.33V397.2a2.57,2.57,0,0,1-1.46,2.32c-2.73,1.28-8.83,3.38-14.52,0a2.52,2.52,0,0,1-1.22-2.19V381.22Z"/><path class="cls-14" d="M936.77,393.06v-9.57l-17.2,1.89v8.12C922.8,394.48,928.8,395.46,936.77,393.06Z"/><rect class="cls-4" x="712.91" y="470.18" width="95.85" height="13.3"/><rect class="cls-3" x="701.33" y="456.88" width="95.85" height="13.3"/><path class="cls-11" d="M879.31,495.94s-64.44-2-79.08,11.82-4.82,118.15-2.38,127.71c0,0,13.36,6.37,23.94,3.11s6.51-48.91,6.51-48.91-1.22-43.6.4-49.72,24-10.59,24-10.59,34.57-24.05,32.53-24.05S879.31,495.94,879.31,495.94Z"/><path class="cls-7" d="M862.14,434.73l-10.31-28.49a1.92,1.92,0,0,0-2.66-1.07l-19.5,9.61a2.19,2.19,0,0,0-1,2.84l16.87,38.73a2.44,2.44,0,0,0,3.07,1.31l17.1-6.34Z"/><path class="cls-13" d="M844.69,436.77a.85.85,0,0,1,0-.23c.47-1.85,1-2.08,1.35-2.08a1.54,1.54,0,0,1,0-.83c.87-2.65,1.86-.25,1.86-.25,2.48,3.68,10.12,7,10.12,7l2.61.57a60.23,60.23,0,0,1,1.44-6.2s5.45,9.9,5.5,10c.17.45-2.7,4.51-3.91,5.84s-3.56,4.56-3.71,4.82c0,0-5.67-3.61-7.7-5.37a93,93,0,0,1-7.5-6.72,3.38,3.38,0,0,1-.84-3.25A3,3,0,0,1,844.69,436.77Z"/><path class="cls-14" d="M844.72,436.62a6.13,6.13,0,0,0,.78,2.1,9.21,9.21,0,0,0,1.33,1.83,11.36,11.36,0,0,0,1.7,1.47c.3.22.63.41.94.61s.66.35,1,.51c-.61-.43-1.22-.85-1.79-1.32a16.35,16.35,0,0,1-1.62-1.5,13.28,13.28,0,0,1-1.35-1.72A8.94,8.94,0,0,1,844.72,436.62Z"/><path class="cls-14" d="M844,440.07a6.28,6.28,0,0,0,.93,2,9.56,9.56,0,0,0,1.47,1.71,11.3,11.3,0,0,0,1.81,1.34c.32.19.66.35,1,.53s.69.29,1,.42c-.64-.38-1.28-.74-1.88-1.16a16.53,16.53,0,0,1-1.73-1.37A13.43,13.43,0,0,1,845.1,442,8.76,8.76,0,0,1,844,440.07Z"/><path class="cls-14" d="M846.08,434.46a6.38,6.38,0,0,0,.77,2.11,10.36,10.36,0,0,0,1.33,1.82,11.35,11.35,0,0,0,1.7,1.48c.31.22.63.4,1,.61l1,.5c-.61-.43-1.22-.84-1.79-1.31a17.63,17.63,0,0,1-1.61-1.5,13.19,13.19,0,0,1-1.35-1.73A8.94,8.94,0,0,1,846.08,434.46Z"/><path class="cls-13" d="M945.06,463.53l-18.54,28-24.66-4.87L860,455.41l7.34-10.88s39.2,23.55,42.54,24.21,12.43-20.64,12.43-20.64Z"/><path class="cls-18" d="M961,416c-2,11.12-7.34,36.87-15,48.75,0,0-18.6-1.36-29.07-14.08,0,0,14.31-35.37,18-42.62,3-5.83,17.49-23.15,24.65-6A24.63,24.63,0,0,1,961,416Z"/><rect class="cls-6" x="701.33" y="492.76" width="6.53" height="178.81"/><rect class="cls-6" x="762.95" y="492.76" width="6.53" height="178.81"/><rect class="cls-6" x="949.33" y="492.76" width="6.53" height="178.81"/><rect class="cls-6" x="1010.95" y="492.76" width="6.53" height="178.81"/><rect class="cls-27" x="683.84" y="483.48" width="352.03" height="11.4" rx="5.7"/><path class="cls-7" d="M952,363.91s6-21.31-5.59-29.94-24.2-8.31-33-3.88S898.7,351.14,902.13,361l28.93-7.86Z"/><path class="cls-14" d="M907.82,363.69c1.06,2.76.14,5.68-2.06,6.54s-4.85-.7-5.91-3.46-.14-5.69,2.06-6.54S906.76,360.93,907.82,363.69Z"/><path class="cls-13" d="M908.3,379.72a21.59,21.59,0,0,1-1.64-3.78,42.71,42.71,0,0,1-2.09-10.56c-.05-.71-.15-1.4-.25-2.1a22.83,22.83,0,1,1,45.38-3.08,4.91,4.91,0,0,1,4.45-.27c2.69,1.27,3.59,5,2,8.38s-5,5.07-7.72,3.81a4.67,4.67,0,0,1-1-.67c-1.35,11.18-10.67,19.65-21.65,19.25A20.49,20.49,0,0,1,912,384.64c-.24-.21-.49-.46-.76-.74A20,20,0,0,1,908.3,379.72Z"/><path class="cls-14" d="M921.76,359.44c-.15,1.3-.26,2.57-.43,3.82a8.7,8.7,0,0,1-1,3.33l-.11.13-.13.16a2.82,2.82,0,0,0-.38.46,2.52,2.52,0,0,0-.44,1.17,2.7,2.7,0,0,0,.82,2.19,4.37,4.37,0,0,0,3.85,1.09,5.42,5.42,0,0,1-3.08-1.76,1.76,1.76,0,0,1-.36-1.35,1.47,1.47,0,0,1,.27-.6,1.5,1.5,0,0,1,.24-.27l.18-.2.2-.24a5.33,5.33,0,0,0,.79-2,10.53,10.53,0,0,0,.15-2A13.36,13.36,0,0,0,921.76,359.44Z"/><path class="cls-15" d="M929.17,361.79a2,2,0,1,0,2.06-1.93A2,2,0,0,0,929.17,361.79Z"/><path class="cls-15" d="M912,362.3a2,2,0,0,0,1.93,2.07A2,2,0,1,0,912,362.3Z"/><path class="cls-7" d="M927.05,357.09a20.32,20.32,0,0,1,3-.46,9.73,9.73,0,0,1,2.76.17,9.51,9.51,0,0,1,2.6.92c.44.18.82.49,1.27.72s.82.58,1.3.84a8.69,8.69,0,0,0-.77-1.4,7,7,0,0,0-1.12-1.19,6.44,6.44,0,0,0-3-1.44,6.77,6.77,0,0,0-3.29.17A6.06,6.06,0,0,0,927.05,357.09Z"/><path class="cls-7" d="M918.21,357.35a6,6,0,0,0-2.78-1.58,6.69,6.69,0,0,0-3.3-.07,6.46,6.46,0,0,0-2.93,1.53,6.56,6.56,0,0,0-1.08,1.22,9.08,9.08,0,0,0-.73,1.42c.48-.27.86-.6,1.28-.87a13.92,13.92,0,0,1,1.25-.76,9.26,9.26,0,0,1,2.56-1,9.73,9.73,0,0,1,2.76-.26A20.07,20.07,0,0,1,918.21,357.35Z"/><path class="cls-7" d="M949.36,360.49a3.46,3.46,0,0,1,2.36-.95l-.29-7-2-4.29s-8-11.66-8.26-11.95-6.58-4.23-7-4.43-9.49.77-9.49.77-15.77-3.95-13.44,4.5,13.74,13.33,14.36,13c-1.81-1.95-1.77-7.26-1.77-7.26C931.71,352.16,947,359.4,949.36,360.49Z"/><path class="cls-4" d="M916.16,374.37a5.93,5.93,0,0,0,11.42.75Z"/><rect class="cls-28" x="934.43" y="483.48" width="101.44" height="11.4" rx="5.7"/><rect class="cls-29" x="705.88" y="458.93" width="45.35" height="8.87"/><rect class="cls-30" x="783.61" y="470.18" width="4.9" height="13.3"/><rect class="cls-31" y="671.73" width="1420.44" height="9.73" rx="4.86"/><rect class="cls-6" x="1098.36" y="492.76" width="6.53" height="178.81"/><rect class="cls-6" x="1159.98" y="492.76" width="6.53" height="178.81"/><rect class="cls-6" x="1346.36" y="492.76" width="6.53" height="178.81"/><rect class="cls-6" x="1407.98" y="492.76" width="6.53" height="178.81"/><rect class="cls-27" x="1080.87" y="483.48" width="352.03" height="11.4" rx="5.7"/><rect class="cls-28" x="1331.04" y="483.48" width="101.44" height="11.4" rx="5.7"/></g></g></g></g></svg>