<svg xmlns="http://www.w3.org/2000/svg" viewBox="0 0 1003.88 1033.32"><defs><style>.cls-1{opacity:0.34;}.cls-2{opacity:0.28;}.cls-3{fill:#579c9f;}</style></defs><g id="Layer_2" data-name="Layer 2"><g id="_Layer_" data-name="&lt;Layer&gt;"><g class="cls-1"><g class="cls-2"><path class="cls-3" d="M278,822.82C116.84,707.31,79.71,482.24,195.23,321.09S535.82,122.82,697,238.33s198.28,340.59,82.76,501.74S439.13,938.34,278,822.82ZM673.45,271.13C530.39,168.57,330.57,201.54,228,344.6S158.42,687.48,301.49,790s342.89,69.59,445.44-73.47S816.52,373.68,673.45,271.13Z"/><path class="cls-3" d="M454.28,576.89a57,57,0,1,1,79.5-13.12A57,57,0,0,1,454.28,576.89Zm42.88-59.83A16.63,16.63,0,1,0,501,540.27,16.65,16.65,0,0,0,497.16,517.06Z"/><path class="cls-3" d="M335.76,237.75a20.08,20.08,0,0,1-6.16-7.16A157.6,157.6,0,0,1,341.64,66c50.81-70.87,149.8-87.2,220.67-36.4A157.7,157.7,0,0,1,616.9,217.21a20.18,20.18,0,1,1-37.42-15.1,117.82,117.82,0,1,0-214,10,20.18,20.18,0,0,1-29.71,25.62Z"/><path class="cls-3" d="M813.51,580.21a20.17,20.17,0,0,1,14.72-36.36,117.82,117.82,0,0,0,86.18-212.26c-45.28-32.46-107.77-28.6-148.58,9.2a20.17,20.17,0,0,1-27.41-29.59c54.8-50.77,138.71-56,199.5-12.4,70.88,50.81,87.21,149.8,36.4,220.68a157.59,157.59,0,0,1-152.05,64.27A20,20,0,0,1,813.51,580.21Z"/><path class="cls-3" d="M463.39,512.54a20.1,20.1,0,0,1-7.67-11L413.9,351.47a20.17,20.17,0,1,1,38.86-10.83l41.82,150.09a20.17,20.17,0,0,1-31.19,21.81Z"/><path class="cls-3" d="M512.67,547.86A20.17,20.17,0,0,1,520,511.78l252.64-56.92a20.18,20.18,0,0,1,8.86,39.37L528.86,551.16A20.14,20.14,0,0,1,512.67,547.86Z"/><path class="cls-3" d="M8.41,671.57A20.17,20.17,0,0,1,14,636l138.15-44.45A20.18,20.18,0,0,1,164.5,630L26.36,674.4A20.17,20.17,0,0,1,8.41,671.57Z"/><path class="cls-3" d="M507.8,1029.55a20.16,20.16,0,0,1-8.44-16.09l-2.27-145.1a20.18,20.18,0,0,1,40.36-.65l2.27,145.11a20.19,20.19,0,0,1-31.92,16.73Z"/><path class="cls-3" d="M619.83,345.94a20.17,20.17,0,0,1-4.65-28.15l26.45-36.9a20.17,20.17,0,1,1,32.79,23.51L648,341.29A20.17,20.17,0,0,1,619.83,345.94Z"/><path class="cls-3" d="M305.16,784.9a20.17,20.17,0,0,1-4.64-28.15L327,719.86a20.17,20.17,0,0,1,32.79,23.51l-26.45,36.89A20.17,20.17,0,0,1,305.16,784.9Z"/><path class="cls-3" d="M713.66,717.54l-36.9-26.45a20.17,20.17,0,0,1,23.51-32.79l36.89,26.44a20.17,20.17,0,0,1-23.5,32.8Z"/><path class="cls-3" d="M274.68,402.86l-36.89-26.44a20.17,20.17,0,1,1,23.5-32.79l36.9,26.44a20.17,20.17,0,0,1-23.51,32.79Z"/></g></g></g></g></svg>